<svg version="1.2" xmlns="http://www.w3.org/2000/svg" viewBox="0 0 55 55" width="55" height="55"><style>.a{fill:#424242}</style><path fill-rule="evenodd" class="a" d="m54.3 8.1l-1.5 15.3c-0.2 1.5-1.2 3.6-2.3 4.7l-24.5 24.5c-1 1-2.3 1.5-3.6 1.5-1.1 0-2.1-0.4-2.8-1.1l-17.5-17.5c-1.7-1.7-1.5-4.7 0.4-6.6l24.5-24.5c1.1-1.1 3.3-2.1 5.1-2.2l14.8-1.5c2.3-0.2 4.4 0.5 5.8 2.1 1.2 1.3 1.8 3.2 1.6 5.3zm-25.6 39l-20.8-20.8-4 4c-1.1 1.1-1.3 2.9-0.4 3.8l17.5 17.5c0.5 0.4 1 0.5 1.4 0.5 0.8 0 1.6-0.3 2.2-0.9zm22.5-43c-0.9-0.9-2.1-1.5-3.5-1.5q-0.3 0-0.6 0.1l-14.8 1.4c-1.3 0.2-3.1 1-3.9 1.7l-19.1 19.1 20.8 20.8 19-19c0.8-0.8 1.6-2.4 1.7-3.5l1.5-15.3c0.2-1.5-0.2-2.8-1.1-3.8z"/><path fill-rule="evenodd" class="a" d="m48 12c0 2.8-2.2 5-5 5-2.8 0-5-2.2-5-5 0-2.8 2.2-5 5-5 2.8 0 5 2.2 5 5zm-2 0c0-1.7-1.3-3-3-3-1.7 0-3 1.3-3 3 0 1.7 1.3 3 3 3 1.7 0 3-1.3 3-3z"/></svg>