<svg version="1.2" xmlns="http://www.w3.org/2000/svg" viewBox="0 0 54 54" width="54" height="54"><style>.a{fill:#424242}</style><path fill-rule="evenodd" class="a" d="m15.9 38.3c0 0.2-0.1 0.7 0.2 1.1 0.3 0.5 1.2 0.6 1.9 0.6h29c0.6 0 1 0.4 1 1 0 0.6-0.4 1-1 1h-29c-2.1 0-3.1-0.8-3.6-1.5-0.6-1-0.6-2.1-0.3-2.8 0.5-1.6 1.4-2.5 2.2-3q-0.6-0.6-0.8-1.4l-4-16.1c-0.2-0.8 0-1.6 0.4-2.2 0.5-0.7 1.3-1 2.1-1h37c0.9 0 1.6 0.4 2 1 0.4 0.6 0.5 1.4 0.2 2.2l-6.5 16.3c-0.6 1.4-2.2 2.5-3.7 2.5h-24q-0.3 0-0.7-0.1-0.1 0.1-0.2 0.1c-0.1 0-1.4 0.2-2.2 2.3zm1.6-5.5c0.1 0.6 0.9 1.2 1.5 1.2h24c0.7 0 1.6-0.6 1.8-1.2l6.5-16.3q0.1-0.3 0.1-0.4-0.1-0.1-0.4-0.1h-37q-0.3 0-0.5 0.2-0.1 0.2 0 0.5z"/><path class="a" d="m12.2 11.1l-2-6.6c-0.9-3.7-3.7-4.6-5-4.5h-4.2c-0.6 0-1 0.4-1 1 0 0.6 0.4 1 1 1h4.3c0.2 0 2.2 0 3 3l2 6.7c0.1 0.4 0.5 0.7 0.9 0.7q0.2 0 0.3-0.1c0.6-0.1 0.9-0.7 0.7-1.2z"/><path fill-rule="evenodd" class="a" d="m23 49c0 2.8-2.2 5-5 5-2.8 0-5-2.2-5-5 0-2.8 2.2-5 5-5 2.8 0 5 2.2 5 5zm-2 0c0-1.7-1.3-3-3-3-1.7 0-3 1.3-3 3 0 1.7 1.3 3 3 3 1.7 0 3-1.3 3-3z"/><path fill-rule="evenodd" class="a" d="m47 49c0 2.8-2.2 5-5 5-2.8 0-5-2.2-5-5 0-2.8 2.2-5 5-5 2.8 0 5 2.2 5 5zm-2 0c0-1.7-1.3-3-3-3-1.7 0-3 1.3-3 3 0 1.7 1.3 3 3 3 1.7 0 3-1.3 3-3z"/></svg>