<svg version="1.2" xmlns="http://www.w3.org/2000/svg" viewBox="0 0 54 54" width="54" height="54"><style>.a{fill:#424242}</style><path fill-rule="evenodd" class="a" d="m54 5v33c0 2.8-2.2 5-5 5h-3v6c0 2.8-2.2 5-5 5h-36c-2.8 0-5-2.2-5-5v-34c0-2.8 2.2-5 5-5h3v-5c0-2.8 2.2-5 5-5h36c2.8 0 5 2.2 5 5zm-10 10c0-1.7-1.3-3-3-3h-36c-1.7 0-3 1.3-3 3v34c0 1.7 1.3 3 3 3h36c1.7 0 3-1.3 3-3zm8-10c0-1.7-1.3-3-3-3h-36c-1.7 0-3 1.3-3 3v5h31c2.8 0 5 2.2 5 5v26h3c1.7 0 3-1.3 3-3z"/><path fill-rule="evenodd" class="a" d="m27 22c0-2.8 2.2-5 5-5 2.8 0 5 2.2 5 5 0 2.8-2.2 5-5 5-2.8 0-5-2.2-5-5zm2 0c0 1.7 1.3 3 3 3 1.7 0 3-1.3 3-3 0-1.7-1.3-3-3-3-1.7 0-3 1.3-3 3z"/><path class="a" d="m33.2 35.5c-1.2-1-3.2-1-4.4 0l-3.7 3.1-7-6.9c-1.1-1.1-3-1.2-4.3-0.1l-9.5 8.7c-0.4 0.3-0.4 1 0 1.4 0.3 0.4 1 0.4 1.4 0l9.5-8.6c0.4-0.4 1.1-0.4 1.5 0l13.6 13.6q0.3 0.3 0.7 0.3 0.4 0 0.7-0.3c0.4-0.4 0.4-1 0-1.4l-5.2-5.2 3.6-3.1c0.5-0.3 1.4-0.4 1.8 0l8.5 6.8q0.3 0.2 0.6 0.2c0.3 0 0.6-0.1 0.8-0.4 0.3-0.4 0.3-1-0.2-1.4z"/></svg>