<svg version="1.2" xmlns="http://www.w3.org/2000/svg" viewBox="0 0 36 54" width="36" height="54"><style>.a{fill:#424242}</style><path fill-rule="evenodd" class="a" d="m36 18c0 4.8-1.9 9.3-5.3 12.7l-0.1 0.1c-0.1 0.2-3.6 2.8-3.6 9.2v2h-18v-2c0-6.4-3.6-9.1-3.6-9.2l-0.1-0.1c-3.4-3.4-5.3-7.9-5.3-12.7 0-9.9 8.1-18 18-18 9.9 0 18 8.1 18 18zm-2 0c0-8.8-7.2-16-16-16-8.8 0-16 7.2-16 16 0 4.3 1.7 8.3 4.7 11.3 0.5 0.4 4.3 3.7 4.3 10.7h6v-15.6l-4.7-4.7c-0.4-0.4-0.4-1 0-1.4 0.4-0.4 1-0.4 1.4 0l4.3 4.3 4.3-4.3c0.4-0.4 1-0.4 1.4 0 0.4 0.4 0.4 1 0 1.4l-4.7 4.7v15.6h6c0-7 3.8-10.3 4.3-10.7 3-3 4.7-7 4.7-11.3z"/><path class="a" d="m26 44h-16c-0.6 0-1 0.4-1 1 0 0.6 0.4 1 1 1h16c0.6 0 1-0.4 1-1 0-0.6-0.4-1-1-1z"/><path fill-rule="evenodd" class="a" d="m26 49c0 0.6-0.4 1-1 1h-2.1c-0.5 2.3-2.5 4-4.9 4-2.4 0-4.4-1.7-4.9-4h-2.1c-0.6 0-1-0.4-1-1 0-0.6 0.4-1 1-1h14c0.6 0 1 0.4 1 1zm-5.2 1h-5.6c0.4 1.2 1.5 2 2.8 2 1.3 0 2.4-0.8 2.8-2z"/></svg>