<svg version="1.2" xmlns="http://www.w3.org/2000/svg" viewBox="0 0 52 54" width="52" height="54"><style>.a{fill:#424242}</style><path fill-rule="evenodd" class="a" d="m52 12v39c0 1.7-1.3 3-3 3h-46c-1.7 0-3-1.3-3-3v-39c0-0.9 0.4-1.7 1-2.2q0.1-0.2 0.2-0.4l5.8-7.4c0.9-1.2 2.6-2 4-2h30c1.4 0 3.1 0.8 4 2l5.8 7.4q0.1 0.2 0.2 0.4c0.6 0.5 1 1.3 1 2.2zm-21-10v7h17l-4.6-5.8c-0.4-0.6-1.6-1.2-2.4-1.2zm-8 0v18c0 0.6 0.4 1 1 1h4c0.6 0 1-0.4 1-1v-18zm-19 7h17v-7h-10c-0.8 0-2 0.6-2.4 1.2zm45.9 3c0-0.6-0.4-1-1-1h-18v9c0 1.6-1.3 3-3 3h-4c-1.6 0-3-1.4-3-3v-9h-18c-0.5 0-1 0.4-1 1v39c0 0.5 0.5 1 1 1h46c0.6 0 1-0.5 1-1z"/><path class="a" d="m44 46h-19c-0.6 0-1 0.4-1 1 0 0.6 0.4 1 1 1h19c0.6 0 1-0.4 1-1 0-0.6-0.4-1-1-1z"/><path class="a" d="m40.7 30.3c-0.4-0.4-1-0.4-1.4 0l-4 4c-0.4 0.4-0.4 1 0 1.4 0.4 0.4 1 0.4 1.4 0l2.3-2.3v8.6c0 0.6 0.4 1 1 1 0.6 0 1-0.4 1-1v-8.6l2.3 2.3q0.3 0.3 0.7 0.3 0.4 0 0.7-0.3c0.4-0.4 0.4-1 0-1.4z"/><path class="a" d="m25.7 35.7l2.3-2.3v8.6c0 0.6 0.4 1 1 1 0.6 0 1-0.4 1-1v-8.6l2.3 2.3q0.3 0.3 0.7 0.3 0.4 0 0.7-0.3c0.4-0.4 0.4-1 0-1.4l-4-4c-0.4-0.4-1-0.4-1.4 0l-4 4c-0.4 0.4-0.4 1 0 1.4 0.4 0.4 1 0.4 1.4 0z"/></svg>