<svg version="1.2" xmlns="http://www.w3.org/2000/svg" viewBox="0 0 50 54" width="50" height="54"><style>.a{fill:#424242}</style><path class="a" d="m45 21c-1.2 0-2.2 0.4-3.1 1.1-0.4-2.3-2.5-4.1-4.9-4.1-1.4 0-2.7 0.6-3.6 1.6-0.9-1.5-2.5-2.6-4.4-2.6-1.1 0-2.2 0.4-3 1v-13c0-2.8-2.2-5-5-5-2.8 0-5 2.2-5 5v27.7l-7.4-6.7c-2-1.9-5.1-2-6.8-0.2-1.7 1.7-1.8 4.8-0.1 7l9.1 11.7c1.3 1.7 3.7 4.5 5.3 6l0.4 0.4c1.7 1.7 5 3.1 7.5 3.1h5c0.6 0 1-0.4 1-1 0-0.6-0.4-1-1-1h-5c-1.9 0-4.7-1.2-6.1-2.5l-0.4-0.4c-1.5-1.5-3.8-4.2-5.2-5.9l-9.1-11.7c-1-1.3-1-3.3 0-4.3 1-1 2.9-0.9 4.1 0.2l8.7 8v0.6c0 0.6 0.4 1 1 1 0.6 0 1-0.4 1-1v-31c0-1.7 1.3-3 3-3 1.7 0 3 1.3 3 3v17 3 3c0 0.6 0.4 1 1 1 0.6 0 1-0.4 1-1v-3-3c0-1.7 1.3-3 3-3 1.7 0 3 1.3 3 3v1 3 3c0 0.6 0.4 1 1 1 0.6 0 1-0.4 1-1v-3-3c0-1.7 1.3-3 3-3 1.7 0 3 1.3 3 3v3 2 2c0 0.6 0.4 1 1 1 0.6 0 1-0.4 1-1v-2-2c0-1.7 1.3-3 3-3 1.7 0 3 1.3 3 3v10 1 9c0 3.3-2.5 6-5.5 6h-6.5c-0.6 0-1 0.4-1 1 0 0.6 0.4 1 1 1h6.5c4.1 0 7.5-3.6 7.5-8v-9-1-10c0-2.8-2.2-5-5-5z"/></svg>