<svg version="1.2" xmlns="http://www.w3.org/2000/svg" viewBox="0 0 55 52" width="55" height="52"><style>.a{fill:#424242}</style><path class="a" d="m45.2 12.6c-0.5-6.6-6.1-11.9-12.8-11.9-5.4 0-10.2 3.4-12.1 8.3q-1.2-0.3-2.5-0.3c-4.7 0-8.6 3.6-8.9 8.3-4.6 1.2-7.9 5.4-7.9 10.3 0 5.9 4.8 10.7 10.7 10.7h5.3c0.6 0 1-0.4 1-1 0-0.6-0.4-1-1-1h-5.3c-4.8 0-8.7-3.9-8.7-8.7 0-4.2 3-7.8 7.1-8.6 0.5 0 0.8-0.5 0.8-1 0 0 0-0.1 0-0.1 0-3.8 3.1-6.9 6.9-6.9q1 0 2 0.2-0.2 0.7-0.3 1.4c0 0.6 0.4 1.1 1 1.1q0 0 0 0c0.6 0 1-0.4 1-0.9q0.1-0.7 0.3-1.4 0-0.1 0-0.2 0.1-0.2 0.1-0.3c1.4-4.7 5.7-7.9 10.5-7.9 5.5 0 10.1 4.2 10.8 9.5q-0.8 0-1.6 0.1c-0.5 0.1-0.9 0.6-0.9 1.1 0.1 0.6 0.6 0.9 1.2 0.9q1-0.2 2.1 0 0 0.1 0.1 0.1c5.2 0.9 8.9 5.4 8.9 10.7 0 5.6-4.2 10.2-9.6 10.8l-2 0.1h-3.4c-0.6 0-1 0.4-1 1 0 0.6 0.4 1 1 1h3.5l2-0.1c6.6-0.7 11.5-6.2 11.5-12.8 0-6-4.1-11.1-9.8-12.5z"/><path fill-rule="evenodd" class="a" d="m35.9 23.5c0.1 0.3 0.1 0.7 0 1l-5.2 9.5h3.3c0.4 0 0.7 0.2 0.9 0.5 0.2 0.3 0.1 0.7-0.1 1l-10 16c-0.1 0.3-0.5 0.5-0.8 0.5q-0.2 0-0.4-0.1c-0.4-0.2-0.7-0.6-0.6-1.1l2.7-11.8h-3.7c-0.3 0-0.6-0.2-0.8-0.4-0.2-0.3-0.3-0.6-0.1-0.9l5-14c0.1-0.4 0.5-0.7 0.9-0.7h8c0.4 0 0.7 0.2 0.9 0.5zm-2.6 1.5h-5.6l-4.3 12h3.6c0.3 0 0.6 0.1 0.8 0.4 0.2 0.2 0.2 0.5 0.2 0.8l-1.7 7.2 5.9-9.4h-3.2c-0.4 0-0.7-0.2-0.9-0.5-0.1-0.3-0.1-0.7 0-1z"/></svg>