<svg version="1.2" xmlns="http://www.w3.org/2000/svg" viewBox="0 0 54 54" width="54" height="54"><style>.a{fill:#424242}</style><path fill-rule="evenodd" class="a" d="m41 25v26c0 1.7-1.3 3-3 3h-35c-1.7 0-3-1.3-3-3v-36c0-1.4 0.7-3.2 1.7-4.1l9.2-9.2c0.9-1 2.7-1.7 4.1-1.7h23c1.7 0 3 1.3 3 3v2c0 0.6-0.4 1-1 1-0.6 0-1-0.4-1-1v-2c0-0.6-0.4-1-1-1h-23v10c0 1.7-1.3 3-3 3h-10v36c0 0.6 0.4 1 1 1h35c0.6 0 1-0.4 1-1v-26c0-0.6 0.4-1 1-1 0.6 0 1 0.4 1 1zm-37.9-12.7q-0.3 0.3-0.5 0.7h9.4c0.6 0 1-0.4 1-1v-9.4q-0.4 0.2-0.7 0.5z"/><path fill-rule="evenodd" class="a" d="m47.7 11.3c0.4 0.4 0.4 1 0 1.4l-21 21q-0.1 0.1-0.3 0.2l-8 4q-0.2 0.1-0.4 0.1-0.4 0-0.7-0.3c-0.3-0.2-0.4-0.7-0.2-1.1l3-8q0-0.2 0.2-0.3l22-21c0.4-0.4 1-0.4 1.4 0zm-2.1 0.7l-2.6-2.6-21.1 20.2-2.1 5.4 5.6-2.8z"/><path fill-rule="evenodd" class="a" d="m54 6v0.4l-4 4-5.4-5.4 4-4h0.4c1.7 0 5 1 5 5zm-2-0.4c-0.2-2-1.8-2.5-2.6-2.6l-2 2 2.6 2.6z"/></svg>