<svg version="1.2" xmlns="http://www.w3.org/2000/svg" viewBox="0 0 54 54" width="54" height="54"><style>.a{fill:#424242}</style><path fill-rule="evenodd" class="a" d="m54 27c0 14.9-12.1 27-27 27-14.9 0-27-12.1-27-27 0-14.9 12.1-27 27-27 14.9 0 27 12.1 27 27zm-2 1h-10.6c0 3.8-0.5 7.4-1.3 10.7 3.6 1.2 5.9 2.7 6.8 3.4 3-3.9 4.9-8.8 5.1-14.1zm-44.9 14.1c0.9-0.7 3.2-2.2 6.8-3.4-0.8-3.3-1.3-6.9-1.3-10.7h-10.6c0.2 5.3 2.1 10.2 5.1 14.1zm-5.1-16.1h10.6c0-3.8 0.5-7.4 1.3-10.6-3.7-1.3-6-2.8-6.9-3.4-2.9 3.9-4.8 8.7-5 14zm26 0h11.4c0-3.5-0.5-6.9-1.3-10-2.7 0.8-6.1 1.3-10.1 1.4zm9.6-11.9c-2.1-6.6-5.6-11.3-9.6-12v13.3c3.8-0.1 7-0.6 9.6-1.3zm-21.2 0c2.6 0.7 5.8 1.2 9.6 1.3v-13.3c-4 0.7-7.5 5.4-9.6 12zm-0.5 1.9c-0.8 3.1-1.3 6.5-1.3 10h11.4v-8.6c-4-0.1-7.4-0.6-10.1-1.4zm0 22.1c2.7-0.8 6.1-1.3 10.1-1.4v-8.7h-11.4c0 3.6 0.5 7 1.3 10.1zm0.5 1.9c2.1 6.6 5.6 11.2 9.6 11.9v-13.2c-3.8 0.1-7 0.6-9.6 1.3zm21.2 0c-2.6-0.7-5.8-1.2-9.6-1.3v13.2c4-0.7 7.5-5.3 9.6-11.9zm0.5-1.9c0.8-3.1 1.3-6.5 1.3-10.1h-11.4v8.7c4 0.1 7.4 0.6 10.1 1.4zm13.9-12.1c-0.2-5.2-2.1-10.1-5-14-0.9 0.6-3.2 2.2-6.9 3.4 0.8 3.2 1.3 6.8 1.3 10.6zm-18.3-23.1c2.5 2.4 4.5 6 5.9 10.6 3.3-1.2 5.4-2.5 6.1-3.1-3.1-3.5-7.3-6.2-12-7.5zm-25.3 7.5c0.8 0.6 2.8 1.9 6.1 3.1 1.4-4.6 3.5-8.2 6-10.6-4.8 1.3-8.9 4-12.1 7.5zm12.1 40.7c-2.5-2.3-4.6-6-6-10.5-3.2 1.2-5.3 2.5-6.1 3.1 3.2 3.5 7.4 6.1 12.1 7.4zm25.2-7.4c-0.8-0.6-2.8-1.9-6.1-3.1-1.4 4.5-3.4 8.2-5.9 10.5 4.7-1.3 8.8-3.9 12-7.4z"/></svg>