<svg version="1.2" xmlns="http://www.w3.org/2000/svg" viewBox="0 0 52 54" width="52" height="54"><style>.a{fill:#424242}</style><path class="a" d="m26 29c-0.6 0-1 0.4-1 1v17c0 3.3-2.5 5-5 5-2.5 0-5-1.7-5-5v-2c0-0.6-0.4-1-1-1-0.6 0-1 0.4-1 1v2c0 4.5 3.6 7 7 7 3.4 0 7-2.5 7-7v-17c0-0.6-0.4-1-1-1z"/><path fill-rule="evenodd" class="a" d="m52 30.7q0 0.4 0 0.8c0 0.6-0.4 1-1 1-0.6 0-1-0.4-1-1q0-0.4 0-0.8c-0.4-0.8-2.3-4-6.7-4-5 0-6.7 4.1-6.8 4.2-0.1 0.4-0.4 0.6-0.8 0.7-0.4 0-0.7-0.2-0.9-0.5-0.1-0.2-2.8-4.4-8.8-4.4-6.1 0-8.7 4.3-8.8 4.4-0.2 0.3-0.5 0.5-0.9 0.5-0.4-0.1-0.7-0.3-0.8-0.7-0.1-0.1-1.8-4.2-6.8-4.2-4.4 0-6.3 3.2-6.7 4q0 0.4 0 0.8c0 0.6-0.4 1-1 1-0.6 0-1-0.4-1-1q0-0.4 0-0.8 0-0.1 0-0.3c0.6-13.4 11.1-23.4 25-23.9v-5.5c0-0.6 0.4-1 1-1 0.6 0 1 0.4 1 1v5.5c13.9 0.5 24.4 10.5 25 23.9q0 0.2 0 0.3zm-2.4-3.7c-2.2-12-13.2-18.5-23.6-18.5-10.4 0-21.4 6.5-23.6 18.5 1.4-1.2 3.4-2.3 6.3-2.3 4.3 0 6.7 2.5 7.8 4.1 1.5-1.6 4.5-4.1 9.5-4.1 5 0 8 2.5 9.5 4.1 1.1-1.6 3.5-4.1 7.8-4.1 2.9 0 4.9 1.1 6.3 2.3z"/></svg>